HIERARCHY
ROOT Hips
{
  OFFSET -35.4901 99.2528 17.4586
  CHANNELS 6 Xposition Yposition Zposition Zrotation Xrotation Yrotation
  JOINT LeftUpLeg
  {
    OFFSET 8.64259 1.95398 -2.38835
    CHANNELS 3 Zrotation Xrotation Yrotation
    JOINT LeftLeg
    {
      OFFSET 43.7702 0 0
      CHANNELS 3 Zrotation Xrotation Yrotation
      JOINT LeftFoot
      {
        OFFSET 40.6238 0 0
        CHANNELS 3 Zrotation Xrotation Yrotation
        JOINT LeftToeBase
        {
          OFFSET 12.7242 0 0
          CHANNELS 3 Zrotation Xrotation Yrotation
          End Site
          {
            OFFSET 0 0 0
          }
        }
      }
    }
  }
  JOINT RightUpLeg
  {
    OFFSET -8.2249 1.95398 -2.59336
    CHANNELS 3 Zrotation Xrotation Yrotation
    JOINT RightLeg
    {
      OFFSET 43.5653 0 0
      CHANNELS 3 Zrotation Xrotation Yrotation
      JOINT RightFoot
      {
        OFFSET 40.6238 0 0
        CHANNELS 3 Zrotation Xrotation Yrotation
        JOINT RightToeBase
        {
          OFFSET 12.7242 0 0
          CHANNELS 3 Zrotation Xrotation Yrotation
          End Site
          {
            OFFSET 0 0 0
          }
        }
      }
    }
  }
  JOINT Spine
  {
    OFFSET 0.165834 0.87714 6.61349
    CHANNELS 3 Zrotation Xrotation Yrotation
    JOINT Spine1
    {
      OFFSET 7.38963 1.71661e-005 0
      CHANNELS 3 Zrotation Xrotation Yrotation
      JOINT Spine2
      {
        OFFSET 11.9445 1.14441e-005 0
        CHANNELS 3 Zrotation Xrotation Yrotation
        JOINT Spine3
        {
          OFFSET 14.7254 4.19617e-005 0
          CHANNELS 3 Zrotation Xrotation Yrotation
          JOINT Spine4
          {
            OFFSET 10.9679 0 0
            CHANNELS 3 Zrotation Xrotation Yrotation
            JOINT RightShoulder
            {
              OFFSET 2.46616 -1.6653 3.69651
              CHANNELS 3 Zrotation Xrotation Yrotation
              JOINT RightArm
              {
                OFFSET 13.0012 0 0
                CHANNELS 3 Zrotation Xrotation Yrotation
                JOINT RightForeArm
                {
                  OFFSET 28.7848 1.52588e-005 0
                  CHANNELS 3 Zrotation Xrotation Yrotation
                  JOINT RightHand
                  {
                    OFFSET 26.5688 1.52588e-005 0
                    CHANNELS 3 Zrotation Xrotation Yrotation
                    End Site
                    {
                      OFFSET 0 0 0
                    }
                  }
                }
              }
            }
            JOINT LeftShoulder
            {
              OFFSET 2.38034 -1.29275 -3.7523
              CHANNELS 3 Zrotation Xrotation Yrotation
              JOINT LeftArm
              {
                OFFSET 16.3182 6.10351e-005 0
                CHANNELS 3 Zrotation Xrotation Yrotation
                JOINT LeftForeArm
                {
                  OFFSET 27.0901 0 0
                  CHANNELS 3 Zrotation Xrotation Yrotation
                  JOINT LeftHand
                  {
                    OFFSET 24.5451 1.52588e-005 0
                    CHANNELS 3 Zrotation Xrotation Yrotation
                    End Site
                    {
                      OFFSET 0 0 0
                    }
                  }
                }
              }
            }
            JOINT Neck
            {
              OFFSET 5.0226 -0.0266342 0
              CHANNELS 3 Zrotation Xrotation Yrotation
              JOINT Head
              {
                OFFSET 6.69364 2.86102e-005 0
                CHANNELS 3 Zrotation Xrotation Yrotation
                End Site
                {
                  OFFSET 0 0 0
                }
              }
            }
          }
        }
      }
    }
  }
}
MOTION
Frames:	14
Frame Time:	0.0416667
-67.8251 96.3918 84.6321 -102.995 -44.5231 -99.5187 -175.145 8.605 92.29 -33.2524 14.4658 0.0258607 76.1701 6.81887 -4.73155 18.2468 -1.41865 2.81656 171.414 5.01266 83.3737 -57.9979 -20.9524 -2.56281 64.2616 -2.58749 -0.156833 30.017 -0.653003 1.63148 1.11781 8.20942 -89.8382 10.4554 2.30092 0.118193 -1.21349 2.30386 0.0167572 -23.7635 2.15896 0.804568 -3.75084 2.15896 0.804573 89.5468 -29.6752 -107.785 32.5035 -5.04681 -9.30769 -0.0288499 -25.2497 -19.5136 -27.824 -0.131536 -7.08643 -82.0663 -47.0375 90.4331 -29.1697 10.6113 15.241 5.59649 14.4279 -15.2092 2.83346 0.0245013 -1.83982 -1.83987 -5.21089 -9.70427 -1.45405 -3.98598 -5.42817 
-63.7703 95.5623 79.9939 -101.307 -44.7983 -98.8734 -177.244 13.7992 90.7621 -33.1027 12.7173 1.19391 75.3681 6.66071 -5.77523 13.3958 -4.67366 7.13256 175.139 -2.83615 82.5232 -52.4393 -37.7711 -8.50084 67.3956 -3.82716 0.412284 32.259 -0.925611 2.21524 1.62116 8.01134 -89.8701 10.8555 3.28791 -0.0491138 -0.81126 3.28255 -0.19394 -23.3779 3.1505 0.942313 -3.36525 3.1505 0.9423 88.7935 -29.3991 -109.395 31.019 -6.36036 -12.0191 -0.331494 -26.5105 -19.9179 -25.6505 -0.0917891 -7.65756 -80.8074 -47.9468 92.4598 -33.6751 9.05536 19.3601 5.74182 10.9108 -17.3351 0.0795226 -0.0629562 -3.22834 -0.954146 -6.20072 -7.42819 -1.25747 -5.19669 -6.64382 
-58.8134 94.8365 72.8536 -98.4691 -44.8591 -97.2979 -179.145 19.8907 90.7203 -29.0541 12.7727 1.95735 66.6823 3.73925 -5.32983 16.7484 -4.29356 6.74835 178.424 -5.38057 84.3583 -44.8269 -43.9178 -14.3618 77.9524 -9.12953 -1.64043 32.7786 -2.30744 6.24405 1.95591 7.9641 -89.9711 10.9559 3.90742 -0.312545 -0.709217 3.88986 -0.484473 -23.2902 3.82042 0.878024 -3.27754 3.82042 0.878018 88.8892 -27.3887 -110.083 31.1505 -8.36254 -18.0285 1.2093 -22.9943 -18.6979 -25.0509 0.0905884 -8.14392 -79.4451 -50.7731 94.6739 -35.0332 8.48659 17.9996 4.88269 8.62685 -15.6151 -1.27609 -0.0957333 -4.80194 1.93814 -5.837 -1.01702 -1.74649 -5.62247 -8.98108 
-53.4368 94.3077 63.8625 -96.549 -50.5823 -96.199 -178.722 22.3415 91.2232 -16.0616 21.6568 0.31762 63.0002 2.0551 -2.37648 22.5952 -5.04957 8.14259 177.367 1.2863 84.9295 -42.3483 -39.2192 -10.4552 85.7503 -12.5772 -0.959752 26.1763 -1.72243 4.76681 1.79191 8.24972 -90.1501 10.3884 3.50095 -0.606393 -1.27809 3.47086 -0.760076 -23.8508 3.52115 0.475159 -3.83817 3.52115 0.47515 88.1671 -26.7435 -111.851 28.9516 -9.90455 -24.1266 1.99924 -20.0962 -19.1143 -25.1317 0.267493 -8.60594 -78.9798 -51.5759 95.3935 -34.6226 8.03965 14.1823 5.60022 7.29543 -17.3899 0.22666 -0.115155 -5.36439 8.40209 -4.08491 5.44224 -1.96881 -5.15962 -9.43662 
-49.9111 95.4099 56.2281 -93.1176 -62.0677 -94.3495 -178.492 22.4467 90.0311 -8.96969 -9.3151 -3.75864 64.7239 4.5313 -4.23093 23.0924 -4.47474 7.28826 173.754 6.25499 86.1107 -36.2039 -32.8578 -5.20396 84.5595 -12.3004 -2.75677 22.3049 -1.21506 3.61597 1.59359 8.19959 -90.1996 10.4865 3.08271 -0.670241 -1.181 3.05022 -0.805387 -23.7455 3.14148 0.288152 -3.73286 3.14147 0.288149 87.7116 -28.1357 -112.117 29.6481 -12.1338 -24.1271 2.66641 -19.3159 -18.9195 -23.971 0.188222 -8.25806 -79.8674 -48.7849 93.9576 -34.0238 6.92529 10.8339 6.01465 5.77928 -18.0123 1.83373 -0.163337 -6.35239 12.2496 -2.15403 6.16483 -3.7196 -3.52501 -5.47865 
-47.5227 98.2003 50.4656 -89.5756 -76.9245 -93.6834 -177.197 24.7198 86.6003 -26.18 -16.1238 -4.76706 66.4736 3.45282 -2.39407 18.9335 -2.63362 4.48646 172.075 6.39999 85.9184 -26.288 -19.7735 -3.38662 78.5418 -9.19037 -3.40463 20.7289 -0.643114 2.42845 1.30277 8.03973 -89.9109 10.7989 2.63526 -0.0679399 -0.869335 2.62972 -0.183941 -23.4249 2.53376 0.72773 -3.4123 2.53376 0.727729 87.7233 -28.895 -111.74 32.7791 -16.0147 -22.2955 4.73227 -23.6365 -15.5751 -21.6539 0.318485 -10.1524 -80.6429 -45.4288 92.5713 -33.0596 4.98911 8.46076 6.08289 3.83645 -17.875 6.66279 -0.329924 -7.43007 12.6816 0.75447 5.78556 -4.77278 -0.643118 -2.48762 
-45.264 99.1329 46.8611 105.073 -87.6383 98.7396 -174.028 19.9731 88.5598 -36.9232 -2.1955 -4.31323 70.4589 5.38785 -0.308226 16.7916 -0.31904 1.41359 169.91 6.29475 83.8308 -23.2164 -6.52846 -2.34403 76.263 -7.26535 -1.57592 20.5555 0.0343791 0.958785 1.12663 7.92876 -89.5926 11.0106 2.43157 0.577814 -0.658152 2.45466 0.470167 -23.2072 2.14547 1.28218 -3.19459 2.14547 1.28216 88.4103 -29.3455 -110.175 36.9949 -19.2216 -17.9369 3.0133 -21.8223 -20.4594 -20.2643 0.41007 -10.7997 -80.5064 -44.0404 92.708 -32.283 3.46977 9.1252 8.91846 8.05692 -20.9433 5.88438 -0.137515 -5.01351 8.23064 5.15471 5.02778 -4.4084 3.9558 1.75573 
-42.0472 99.5104 44.1059 95.3535 -71.882 89.8397 -172.831 13.8727 95.8137 -33.8307 -11.2326 -3.28361 71.5824 5.77086 1.88021 11.6946 0.728447 0.367274 167.151 3.01684 82.51 -18.0563 4.50832 -0.338086 72.2618 -6.24747 -0.296844 24.6367 0.972016 -1.8134 0.878691 7.73058 -89.6861 11.4105 1.89507 0.435218 -0.259157 1.91239 0.35135 -22.8028 1.67664 0.984781 -2.79012 1.67664 0.984765 88.4315 -30.4633 -109.658 40.3742 -18.0606 -11.6235 -1.06605 -18.0253 -30.3004 -21.7237 0.727472 -11.6749 -80.0219 -44.4656 93.5195 -33.8053 2.88113 12.6035 9.39787 10.0151 -20.2975 3.87896 -0.103727 -4.70638 1.80099 11.4877 4.69539 -5.03855 10.4081 8.4395 
-36.9906 99.2274 40.3896 94.3992 -53.1941 88.653 -172.305 11.162 97.9733 -27.3588 -30.1648 -5.66669 71.8228 5.41945 0.862856 12.2625 0.042865 1.18899 163.198 1.65175 79.0413 -18.8996 17.7571 1.90566 69.2727 -5.09489 1.97278 28.4809 1.89845 -5.01279 0.635233 7.67133 -89.834 11.5307 1.34144 0.193146 -0.139582 1.34867 0.133901 -22.6794 1.22137 0.587438 -2.66678 1.22138 0.587436 88.8251 -30.6328 -108.819 42.2444 -11.2433 -8.58826 -3.5239 -20.8791 -34.1014 -23.8776 0.8835 -12.2816 -80.0967 -45.3916 93.4441 -35.7158 4.95723 13.2052 7.67318 11.6126 -15.9632 0.297748 -0.0892801 -4.31639 -1.65358 15.4546 6.08181 -7.49002 14.0329 12.0557 
-29.8775 98.0644 34.8602 95.0238 -33.4887 87.5856 -171.54 10.7849 93.6517 -28.1086 -28.8399 -7.99332 70.2276 5.16422 -1.73382 16.5889 0.109891 0.813574 158.024 0.153572 71.9762 -23.4328 24.0772 3.87116 63.6025 -1.56933 1.94675 33.47 3.02111 -9.82932 0.67488 7.72136 -90.0126 11.4324 1.33698 -0.160502 -0.237843 1.32861 -0.219206 -22.7783 1.32341 0.248814 -2.76569 1.32338 0.248802 89.5181 -29.3085 -107.988 41.8259 -3.97341 -5.62086 -2.07279 -17.4046 -30.9003 -25.7814 1.12115 -12.2793 -80.4831 -46.5558 92.8902 -36.0223 6.65871 13.2032 6.30075 10.6444 -14.5811 -1.03703 -0.0860931 -3.94984 -4.05829 14.4514 7.18634 -6.55905 13.1856 11.7891 
-21.7402 96.7508 28.0417 96.0352 -17.2203 86.0415 -171.608 9.18958 87.3194 -30.0824 -15.1743 -8.04343 75.4884 7.3526 -5.66361 14.6124 -0.856829 2.2464 157.067 1.90694 64.6429 -33.9989 17.2372 -0.07317 60.9165 0.497256 0.111128 25.994 0.917901 -2.801 0.943393 7.76229 -89.9866 11.3517 1.88377 -0.161066 -0.317849 1.87485 -0.243853 -22.8638 1.84503 0.412731 -2.8512 1.84507 0.412734 90.981 -29.2993 -105.059 38.0318 -2.79616 -1.64455 -1.54038 -21.2967 -24.4777 -25.6223 0.621609 -10.4856 -81.1824 -46.7219 91.7981 -35.9363 5.59342 13.3027 6.80388 10.3934 -15.1682 -2.94583 -0.0967998 -5.07029 -1.48087 12.2631 4.07982 -7.03779 11.1284 12.2023 
-16.1633 95.9773 22.5411 96.7696 -1.08281 84.0943 -174.642 9.06071 83.0728 -34.922 -4.64443 -6.90427 79.8178 8.3629 -3.63498 10.8968 0.0923356 1.20122 171.058 0.625139 71.5253 -53.2376 -9.2021 -8.62115 67.8286 -4.62982 -3.65498 17.1366 -1.78526 5.07813 0.549645 7.85056 -90.1006 11.1755 1.04724 -0.302688 -0.495101 1.03287 -0.348488 -23.0334 1.08979 0.0260763 -3.02076 1.08978 0.0260703 90.969 -28.3934 -105.419 37.9717 0.639494 2.19068 1.3364 -17.9837 -17.4663 -21.8547 0.169359 -8.25176 -81.0609 -49.5418 92.1689 -32.1754 6.51926 8.74392 5.03945 8.90308 -10.3687 -2.96209 -0.0900824 -4.17003 -0.577287 11.8445 6.233 -5.10022 10.6404 9.55099 
-11.4958 96.6165 19.4779 97.1061 14.1023 85.5479 -176.517 5.50579 83.9696 -32.4929 11.3586 -4.13631 79.9016 8.57678 -1.54746 8.61678 1.13355 0.137035 -176.975 8.55839 83.3604 -65.8333 -8.74 -7.82722 75.3005 -8.90325 -5.90961 19.6255 -1.90373 5.21584 -0.166448 7.96863 -90.1968 10.9359 -0.422213 -0.351444 -0.735045 -0.43732 -0.33252 -23.2701 -0.297068 -0.46209 -3.25748 -0.297124 -0.462103 90.8281 -29.7631 -105.199 40.1759 2.06528 6.62633 1.43627 -16.6683 -16.7741 -25.4295 0.258615 -8.06161 -82.4718 -47.8681 89.8733 -28.3006 10.34 -2.07585 3.24539 10.4479 -6.31987 -2.8959 -0.085694 -5.4291 0.273658 10.7013 2.7667 -4.34444 9.99237 9.89842 
-6.40602 98.0877 16.2932 97.3655 33.4599 86.325 -177.9 0.385989 85.6394 -29.5605 29.6602 1.25291 75.8634 7.9219 1.15494 7.55908 2.24045 -1.05389 -179.225 18.7006 87.7359 -57.7871 -1.61507 -5.06465 75.2274 -8.38252 -2.39965 17.9865 -0.852467 3.03777 -0.938761 8.16055 -90.4052 10.5477 -2.05586 -0.620738 -1.1217 -2.0812 -0.529616 -23.6663 -1.77426 -1.21006 -3.65368 -1.77424 -1.21006 91.6783 -29.0137 -103.752 44.7048 1.29497 10.0189 2.36479 -18.0493 -16.7707 -22.2655 0.570891 -10.5134 -83.9268 -46.4744 87.4553 -24.6746 11.3551 -14.7181 5.33686 11.4388 -11.778 -1.77039 -0.103101 -6.83442 2.51788 7.22283 -0.0976021 -3.40461 7.03981 7.90602 
